<svg xmlns="http://www.w3.org/2000/svg" width="311.73583984375" height="358.916259765625" viewBox="-59.83570098876953 -72.10971069335938 311.73583984375 358.916259765625"><title>Neo4j Graph Visualization</title><desc>Created using Neo4j (http://www.neo4j.com/)</desc><g class="layer relationships"><g class="relationship" transform="translate(138.84123157617202 210.84032093989916) rotate(185.75128673813515)"><path class="outline" fill="#A5ABB6" stroke="none" d="M 25 0.5 L 27.8196402776976 0.5 L 27.8196402776976 -0.5 L 25 -0.5 Z M 69.8196402776976 0.5 L 72.6392805553952 0.5 L 72.6392805553952 3.5 L 79.6392805553952 0 L 72.6392805553952 -3.5 L 72.6392805553952 -0.5 L 69.8196402776976 -0.5 Z"/><text text-anchor="middle" pointer-events="none" font-size="8px" fill="#000000" x="48.8196402776976" y="3" transform="rotate(180 48.8196402776976 0)" font-family="sans-serif">REVIEWS</text></g><g class="relationship" transform="translate(138.84123157617202 210.84032093989916) rotate(524.5280231650555)"><path class="outline" fill="#A5ABB6" stroke="none" d="M 25 0.5 L 63.52852849787914 0.5 L 63.52852849787914 -0.5 L 25 -0.5 Z M 105.52852849787914 0.5 L 144.05705699575827 0.5 L 144.05705699575827 3.5 L 151.05705699575827 0 L 144.05705699575827 -3.5 L 144.05705699575827 -0.5 L 105.52852849787914 -0.5 Z"/><text text-anchor="middle" pointer-events="none" font-size="8px" fill="#000000" x="84.52852849787914" y="3" transform="rotate(180 84.52852849787914 0)" font-family="sans-serif">REVIEWS</text></g><g class="relationship" transform="translate(41.984602380708516 95.84908949961994) rotate(453.9717395357058)"><path class="outline" fill="#A5ABB6" stroke="none" d="M 25 0.5 L 27.87843874343313 0.5 L 27.87843874343313 -0.5 L 25 -0.5 Z M 69.87843874343312 0.5 L 72.75687748686626 0.5 L 72.75687748686626 3.5 L 79.75687748686626 0 L 72.75687748686626 -3.5 L 72.75687748686626 -0.5 L 69.87843874343312 -0.5 Z"/><text text-anchor="middle" pointer-events="none" font-size="8px" fill="#000000" x="48.87843874343313" y="3" transform="rotate(180 48.87843874343313 0)" font-family="sans-serif">REVIEWS</text></g><g class="relationship" transform="translate(41.984602380708516 95.84908949961994) rotate(474.2099295380927)"><path class="outline" fill="#A5ABB6" stroke="none" d="M 25 0.5 L 64.28768561237167 0.5 L 64.28768561237167 -0.5 L 25 -0.5 Z M 106.28768561237167 0.5 L 145.57537122474335 0.5 L 145.57537122474335 3.5 L 152.57537122474335 0 L 145.57537122474335 -3.5 L 145.57537122474335 -0.5 L 106.28768561237167 -0.5 Z"/><text text-anchor="middle" pointer-events="none" font-size="8px" fill="#000000" x="85.28768561237167" y="3" transform="rotate(180 85.28768561237167 0)" font-family="sans-serif">REVIEWS</text></g><g class="relationship" transform="translate(192.41728643404414 -43.109705171771665) rotate(436.0754620328185)"><path class="outline" fill="#A5ABB6" stroke="none" d="M 25 0.5 L 38.83607182662356 0.5 L 38.83607182662356 -0.5 L 25 -0.5 Z M 80.83607182662357 0.5 L 94.67214365324712 0.5 L 94.67214365324712 3.5 L 101.67214365324712 0 L 94.67214365324712 -3.5 L 94.67214365324712 -0.5 L 80.83607182662357 -0.5 Z"/><text text-anchor="middle" pointer-events="none" font-size="8px" fill="#000000" x="59.83607182662356" y="3" font-family="sans-serif">REVIEWS</text></g><g class="relationship" transform="translate(192.41728643404414 -43.109705171771665) rotate(476.8307485745124)"><path class="outline" fill="#A5ABB6" stroke="none" d="M 25 0.5 L 70.23004607604229 0.5 L 70.23004607604229 -0.5 L 25 -0.5 Z M 112.23004607604229 0.5 L 157.46009215208457 0.5 L 157.46009215208457 3.5 L 164.46009215208457 0 L 157.46009215208457 -3.5 L 157.46009215208457 -0.5 L 112.23004607604229 -0.5 Z"/><text text-anchor="middle" pointer-events="none" font-size="8px" fill="#000000" x="91.23004607604229" y="3" transform="rotate(180 91.23004607604229 0)" font-family="sans-serif">REVIEWS</text></g><g class="relationship" transform="translate(192.41728643404414 -43.109705171771665) rotate(526.2941976292068)"><path class="outline" fill="#A5ABB6" stroke="none" d="M 25 0.5 L 32.98087161275635 0.5 L 32.98087161275635 -0.5 L 25 -0.5 Z M 74.98087161275635 0.5 L 82.9617432255127 0.5 L 82.9617432255127 3.5 L 89.9617432255127 0 L 82.9617432255127 -3.5 L 82.9617432255127 -0.5 L 74.98087161275635 -0.5 Z"/><text text-anchor="middle" pointer-events="none" font-size="8px" fill="#000000" x="53.98087161275635" y="3" transform="rotate(180 53.98087161275635 0)" font-family="sans-serif">REVIEWS</text></g><g class="relationship" transform="translate(138.84123157617202 210.84032093989916) rotate(302.6870504893668)"><path class="outline" fill="#A5ABB6" stroke="none" d="M 25 0.5 L 53.3251053063899 0.5 L 53.3251053063899 -0.5 L 25 -0.5 Z M 95.3251053063899 0.5 L 123.6502106127798 0.5 L 123.6502106127798 3.5 L 130.6502106127798 0 L 123.6502106127798 -3.5 L 123.6502106127798 -0.5 L 95.3251053063899 -0.5 Z"/><text text-anchor="middle" pointer-events="none" font-size="8px" fill="#000000" x="74.3251053063899" y="3" font-family="sans-serif">REVIEWS</text></g><g class="relationship" transform="translate(138.84123157617202 210.84032093989916) rotate(249.38152091217967)"><path class="outline" fill="#A5ABB6" stroke="none" d="M 25 0.5 L 25.847969683508175 0.5 L 25.847969683508175 -0.5 L 25 -0.5 Z M 57.847969683508175 0.5 L 58.69593936701635 0.5 L 58.69593936701635 3.5 L 65.69593936701635 0 L 58.69593936701635 -3.5 L 58.69593936701635 -0.5 L 57.847969683508175 -0.5 Z"/><text text-anchor="middle" pointer-events="none" font-size="8px" fill="#000000" x="41.847969683508175" y="3" transform="rotate(180 41.847969683508175 0)" font-family="sans-serif">REVI…</text></g><g class="relationship" transform="translate(41.984602380708516 95.84908949961994) rotate(289.12650505856254)"><path class="outline" fill="#A5ABB6" stroke="none" d="M 25 0.5 L 34.62386770066197 0.5 L 34.62386770066197 -0.5 L 25 -0.5 Z M 76.62386770066198 0.5 L 86.24773540132394 0.5 L 86.24773540132394 3.5 L 93.24773540132394 0 L 86.24773540132394 -3.5 L 86.24773540132394 -0.5 L 76.62386770066198 -0.5 Z"/><text text-anchor="middle" pointer-events="none" font-size="8px" fill="#000000" x="55.62386770066197" y="3" font-family="sans-serif">REVIEWS</text></g><g class="relationship" transform="translate(41.984602380708516 95.84908949961994) rotate(354.943104810519)"><path class="outline" fill="#A5ABB6" stroke="none" d="M 25 0.5 L 66.3112398761354 0.5 L 66.3112398761354 -0.5 L 25 -0.5 Z M 108.3112398761354 0.5 L 149.6224797522708 0.5 L 149.6224797522708 3.5 L 156.6224797522708 0 L 149.6224797522708 -3.5 L 149.6224797522708 -0.5 L 108.3112398761354 -0.5 Z"/><text text-anchor="middle" pointer-events="none" font-size="8px" fill="#000000" x="87.3112398761354" y="3" font-family="sans-serif">REVIEWS</text></g><g class="relationship" transform="translate(41.984602380708516 95.84908949961994) rotate(384.87857488107613)"><path class="outline" fill="#A5ABB6" stroke="none" d="M 25 0.5 L 32.27961937984726 0.5 L 32.27961937984726 -0.5 L 25 -0.5 Z M 32.27961937984726 0.5 L 39.55923875969452 0.5 L 39.55923875969452 3.5 L 46.55923875969452 0 L 39.55923875969452 -3.5 L 39.55923875969452 -0.5 L 32.27961937984726 -0.5 Z"/><text text-anchor="middle" pointer-events="none" font-size="8px" fill="#000000" x="32.27961937984726" y="3" font-family="sans-serif"/></g></g><g class="layer nodes"><g class="node" transform="translate(138.84123157617202,210.84032093989916)"><circle class="outline" cx="0" cy="0" r="25" fill="#FB95AF" stroke="#E0849B" stroke-width="2px"/><text text-anchor="middle" pointer-events="none" font-family="sans-serif" dy="1.5625" font-size="25" fill="#FFFFFF"/><text text-anchor="middle" pointer-events="none" y="5" font-size="10px" fill="#FFFFFF" font-family="sans-serif"> 4</text></g><g class="node" transform="translate(-30.835701354284865,257.80654017586613)"><circle class="outline" cx="0" cy="0" r="25" fill="#FF756E" stroke="#E06760" stroke-width="2px"/><text text-anchor="middle" pointer-events="none" font-family="sans-serif" dy="1.5625" font-size="25" fill="#FFFFFF"/><text text-anchor="middle" pointer-events="none" font-family="sans-serif" dy="1.5625" font-size="25" fill="#FFFFFF"/><text text-anchor="middle" pointer-events="none" font-family="sans-serif" dy="1.5625" font-size="25" fill="#FFFFFF"/><text text-anchor="middle" pointer-events="none" font-family="sans-serif" dy="1.5625" font-size="25" fill="#FFFFFF"/><text text-anchor="middle" pointer-events="none" y="-10" font-size="10px" fill="#FFFFFF" font-family="sans-serif"> STAR</text><text text-anchor="middle" pointer-events="none" y="0" font-size="10px" fill="#FFFFFF" font-family="sans-serif"> WARS</text><text text-anchor="middle" pointer-events="none" y="10" font-size="10px" fill="#FFFFFF" font-family="sans-serif"> THE</text><text text-anchor="middle" pointer-events="none" y="20" font-size="10px" fill="#FFFFFF" font-family="sans-serif"> LAST</text></g><g class="node" transform="translate(192.41728643404414,-43.109705171771665)"><circle class="outline" cx="0" cy="0" r="25" fill="#FB95AF" stroke="#E0849B" stroke-width="2px"/><text text-anchor="middle" pointer-events="none" font-family="sans-serif" dy="1.5625" font-size="25" fill="#FFFFFF"/><text text-anchor="middle" pointer-events="none" y="5" font-size="10px" fill="#FFFFFF" font-family="sans-serif"> 64</text></g><g class="node" transform="translate(41.984602380708516,95.84908949961994)"><circle class="outline" cx="0" cy="0" r="25" fill="#FB95AF" stroke="#E0849B" stroke-width="2px"/><text text-anchor="middle" pointer-events="none" font-family="sans-serif" dy="1.5625" font-size="25" fill="#FFFFFF"/><text text-anchor="middle" pointer-events="none" y="5" font-size="10px" fill="#FFFFFF" font-family="sans-serif"> 34</text></g><g class="node" transform="translate(34.72867711630504,200.354376109225)"><circle class="outline" cx="0" cy="0" r="25" fill="#FF756E" stroke="#E06760" stroke-width="2px"/><text text-anchor="middle" pointer-events="none" font-family="sans-serif" dy="1.5625" font-size="25" fill="#FFFFFF"/><text text-anchor="middle" pointer-events="none" font-family="sans-serif" dy="1.5625" font-size="25" fill="#FFFFFF"/><text text-anchor="middle" pointer-events="none" y="0" font-size="10px" fill="#FFFFFF" font-family="sans-serif"> SPIDER</text><text text-anchor="middle" pointer-events="none" y="10" font-size="10px" fill="#FFFFFF" font-family="sans-serif"> MAN H…</text></g><g class="node" transform="translate(222.9001457929338,79.83998886206896)"><circle class="outline" cx="0" cy="0" r="25" fill="#FF756E" stroke="#E06760" stroke-width="2px"/><text text-anchor="middle" pointer-events="none" font-family="sans-serif" dy="1.5625" font-size="25" fill="#FFFFFF"/><text text-anchor="middle" pointer-events="none" y="5" font-size="10px" fill="#FFFFFF" font-family="sans-serif"> WONDER</text></g><g class="node" transform="translate(106.90324343168007,125.9538182969713)"><circle class="outline" cx="0" cy="0" r="25" fill="#FF756E" stroke="#E06760" stroke-width="2px"/><text text-anchor="middle" pointer-events="none" font-family="sans-serif" dy="1.5625" font-size="25" fill="#FFFFFF"/><text text-anchor="middle" pointer-events="none" y="5" font-size="10px" fill="#FFFFFF" font-family="sans-serif"> GUARD…</text></g><g class="node" transform="translate(80.72906386687644,-15.871068178788157)"><circle class="outline" cx="0" cy="0" r="25" fill="#FF756E" stroke="#E06760" stroke-width="2px"/><text text-anchor="middle" pointer-events="none" font-family="sans-serif" dy="1.5625" font-size="25" fill="#FFFFFF"/><text text-anchor="middle" pointer-events="none" font-family="sans-serif" dy="1.5625" font-size="25" fill="#FFFFFF"/><text text-anchor="middle" pointer-events="none" y="0" font-size="10px" fill="#FFFFFF" font-family="sans-serif"> JUMANJI</text><text text-anchor="middle" pointer-events="none" y="10" font-size="10px" fill="#FFFFFF" font-family="sans-serif"> WELC…</text></g></g></svg>